<?xml version="1.0" standalone="no"?>
<!DOCTYPE svg PUBLIC "-//W3C//DTD SVG 20010904//EN"
 "http://www.w3.org/TR/2001/REC-SVG-20010904/DTD/svg10.dtd">
<svg version="1.0" xmlns="http://www.w3.org/2000/svg"
 width="700.000000pt" height="700.000000pt" viewBox="0 0 700.000000 700.000000"
 preserveAspectRatio="xMidYMid meet">
<metadata>
Created by potrace 1.14, written by Peter Selinger 2001-2017
</metadata>
<g transform="translate(0.000000,700.000000) scale(0.100000,-0.100000)"
fill="#000000" stroke="none">
<path d="M500 6612 l-476 -2 1 -3038 0 -3037 3476 -3 3475 -2 0 2340 0 2340
-2100 0 -2100 0 -43 21 c-57 27 -86 67 -132 181 -70 170 -142 343 -156 373 -7
17 -29 68 -48 115 -19 47 -88 211 -152 365 -65 154 -124 296 -132 315 l-14 35
-562 0 c-309 0 -776 -1 -1037 -3z"/>
<path d="M6937 6204 c-2 -2 -955 -5 -2118 -7 -1812 -3 -2114 -6 -2111 -18 3
-14 232 -572 236 -577 5 -4 4029 -2 4033 2 2 2 6 137 7 299 l3 295 -23 5 c-13
2 -25 3 -27 1z"/>
</g>
</svg>
