<svg id="Layer_1" data-name="Layer 1" xmlns="http://www.w3.org/2000/svg" viewBox="0 0 1760.09 1931.39"><defs><style>.cls-1{stroke:#000;stroke-linecap:round;stroke-linejoin:round;stroke-width:30px;}</style></defs><path class="cls-1" d="M1744.4,871.15c-10-438-423.08-851.13-851.13-856.1-433-5-853.61,398.18-876,833.7-10,204.07,5,224,211.54,258.82,22.4,229-12.45,358.37-154.3,517.64,19.91,17.43,37.33,32.36,59.73,49.78,5-5,10-10,12.44-17.42,126.92-174.21,189.14-246.38,174.21-448-10-134.39,27.37-196.61,171.72-189.14,22.4,268.77-34.84,400.67-146.83,652-17.42,37.33-34.85,72.17-57.24,104.52,27.37,14.94,54.75,29.87,82.12,42.31,29.87-49.77,52.26-104.52,69.69-164.25,64.7-229,119.45-343.44,141.85-582.35,7.47-92.08,34.84-126.92,136.88-104.52,34.84,291.17-29.87,445.47-119.46,726.69A1070.27,1070.27,0,0,1,525,1876.57l82.13,22.4c17.42-34.84,34.84-72.17,49.77-109.5,109.5-281.22,176.69-445.47,156.79-744.12-7.47-109.5,34.84-129.41,119.45-97,12.44,214-27.37,288.68-2.49,495.24,19.91,179.18,69.69,336,141.86,472.85,27.37-5,52.26-10,77.15-14.93-126.93-251.36-121.95-567.42-117-933.25,109.5-22.4,139.36,7.46,144.34,102,12.44,211.54-17.42,291.17,24.89,497.74,22.4,104.52,62.21,199.09,121.94,281.21,27.38-10,57.24-22.39,84.62-34.84-181.68-211.53-149.32-467.87-146.83-801.35,176.69,34.84,161.76,37.33,176.69,186.65,19.91,189.14,32.35,214,82.13,398.19,7.46,22.4,32.35,67.19,62.21,114.48,24.89-17.42,47.29-34.84,69.69-52.27-129.41-266.28-159.28-373.3-112-564.92C1732,1080.2,1749.37,1060.29,1744.4,871.15ZM888.3,716.85c-102,0-186.65-84.61-186.65-186.65,0-12.44,0-24.89,2.48-34.84,10,39.82,47.29,67.19,89.6,67.19,52.26,0,94.57-37.33,94.57-89.59a94.53,94.53,0,0,0-94.57-94.57H781.28c29.87-22.4,67.2-34.84,107-34.84,102,0,186.65,84.61,186.65,186.65S990.33,716.85,888.3,716.85Z"/></svg>