<svg id="Layer_1" data-name="Layer 1" xmlns="http://www.w3.org/2000/svg" viewBox="0 0 1653.37 1839.85"><path d="M1325.26,1044.27v26.32q-.46,2.64-.94,5.25c-1.61,9.06-2.68,18.26-5,27.15a149,149,0,0,1-23.47,49.67,153.43,153.43,0,0,1-61,50.7,3.6,3.6,0,0,0-2.39,3.88c.1,8,.2,16.11,0,24.16a25.94,25.94,0,0,1-1.83,8.84c-6,14.71-12.07,29.45-18.59,44-10,22.16-19.93,44.34-30.68,66.13q-14.34,29.07-30.48,57.27-19.64,34.33-40.71,67.84a673.61,673.61,0,0,1-53.49,73.78c-15.2,18.12-31.33,35.33-50.35,49.58-9.56,7.17-19.64,13.47-31.07,17.23-4.65,1.53-9.5,2.44-14.26,3.64H692.42c-1-.22-1.92-.38-2.85-.67-6.38-2-13-3.5-19.09-6.14-14.78-6.41-27.28-16.33-39.1-27.08-21.39-19.47-39.83-41.59-56.76-65-11.43-15.78-22.65-31.75-33-48.23-14-22.23-27.46-44.85-40.57-67.64-9.14-15.87-17.45-32.23-25.89-48.5q-8.46-16.29-16.2-33c-6.31-13.53-12.34-27.18-18.33-40.85-5.43-12.37-10.56-24.86-16-37.22a44.5,44.5,0,0,1-3.68-20.37c.27-6.16,0-12.35.09-18.53a2.87,2.87,0,0,0-1.9-3.08,151.43,151.43,0,0,1-48.62-35.13c-26.19-28.32-39.7-62.11-42-100.39a175.58,175.58,0,0,1,5.17-55.4,157.48,157.48,0,0,1,88.49-104.18,3.41,3.41,0,0,0,2.23-3.23c.47-4.8,1-9.61,1.85-14.36,1.61-8.89,3.29-17.77,5.24-26.58a388.63,388.63,0,0,1,25.67-76.12,396.51,396.51,0,0,1,28.35-52A407.15,407.15,0,0,1,601.81,617.93a398.5,398.5,0,0,1,54.71-30.67,403.43,403.43,0,0,1,74.39-25.91,416.66,416.66,0,0,1,57.67-9.67,403.91,403.91,0,0,1,138,10.51,396.94,396.94,0,0,1,53,17.47,408.07,408.07,0,0,1,180.11,143.89c11.49,16.44,22.06,33.49,30.47,51.71,6.77,14.68,13.25,29.53,19,44.65a325.18,325.18,0,0,1,15.39,55.81c1.83,9.93,3.17,20,4.88,29.91a4,4,0,0,0,2,2.66,148.74,148.74,0,0,1,34.27,20.88c33,27.07,52.51,61.79,58,104.23C1324.19,1037,1324.75,1040.64,1325.26,1044.27ZM459,1022.68c-.08,1.15-.17,1.92-.17,2.69q0,87.84-.05,175.67c0,1.8.53,2.78,2.2,3.44,7.41,2.9,14.69,6.18,22.2,8.79,11.14,3.89,22.41,7.39,33.67,10.93,13.81,4.36,27.5,9.28,41.55,12.72q33.23,8.13,66.87,14.46c19.16,3.61,38.5,6.42,57.84,8.89q47.7,6.09,95.79,7.78c36.26,1.26,72.52,1.27,108.74-.59q29.49-1.5,58.88-4.66c21.27-2.27,42.46-5.24,63.63-8.28,12-1.73,24-4.16,35.94-6.4a683.2,683.2,0,0,0,69.4-16.61c11.49-3.4,23-6.8,34.3-10.77,14.5-5.1,28.8-10.8,43.2-16.19,1.79-.67,2.37-1.7,2.34-3.6q-.29-19.47-.39-39-.37-68.22-.69-136.44c0-.84-.08-1.69-.13-2.76-.86.21-1.37.3-1.86.47-14.08,5-28.1,10.14-42.24,14.93-22.39,7.58-45.27,13.51-68.28,18.8-17.7,4.06-35.6,7.19-53.41,10.74-7.27,1.45-14.48,3.36-21.82,4.28-23.44,2.93-46.89,5.76-70.39,8.13-17.27,1.74-34.59,3.21-51.93,3.84-19,.7-38.13.15-57.2.42a987.21,987.21,0,0,1-127.61-5.94c-21.77-2.51-43.49-5.6-65.13-9.11-16.59-2.7-33.12-6-49.47-9.87-22.44-5.36-44.8-11.14-67-17.51-17-4.88-33.69-11-50.51-16.5-2.65-.83-5.31-1.75-8.27-2.75Zm6.57,224.38c.43,1.35.58,2,.86,2.65,4.34,9.61,9.19,19,12.91,28.88,2.69,7.14,6.64,11.93,14.29,13.26q.63.2,1.26.45c17.82,5.36,35.52,11.11,53.47,16,16.4,4.43,32.94,8.47,49.62,11.66,24.6,4.7,49.3,9,74.08,12.54,20,2.9,40.16,4.92,60.31,6.66,38.12,3.27,76.33,3.9,114.58,3.39,33.59-.45,67.1-2.34,100.49-6,17-1.86,34-4,50.84-6.62,20.06-3.15,40.08-6.62,60-10.7,15.76-3.23,31.3-7.55,46.93-11.43,21.3-5.28,42-12.3,62.64-19.83a5,5,0,0,0,2.59-2.34c4.77-10.11,9.43-20.26,14.06-30.43,1.19-2.61,2.18-5.31,3.5-8.55-1.48.45-2.24.66-3,.92-12.07,4.21-24,8.71-36.24,12.57a789.51,789.51,0,0,1-81.44,21.52c-20.42,4.15-41,7.71-61.56,11-17.23,2.72-34.56,4.92-51.91,6.81a1169.58,1169.58,0,0,1-131.12,6.38c-37.8-.14-75.57-1.3-113.15-5.53q-40.93-4.6-81.7-10.75c-15.82-2.35-31.55-5.61-47.14-9.21-20.91-4.84-41.79-9.91-62.41-15.81-16.15-4.61-31.89-10.64-47.82-16-1.44-.51-2.94-.9-4.94-1.49Zm361.35,224.87H734.76A18.38,18.38,0,0,0,716.17,1492c.91,9.33,8.64,16.82,19.26,16.8q81.78-.19,163.56-.06c6.71,0,13.43.08,20.14,0a18.37,18.37,0,0,0,18.28-18.47c0-.22,0-.44,0-.66-.37-10-8.52-17.7-18.93-17.7Z"/><path d="M1095.37,1116.83c-13.27,3.07-26.35,5.58-39,8-5.57,1.07-10.83,2.13-16.13,3.13-1.72.34-3.66.77-5.72,1.23-5.64,1.24-12.65,2.76-20.46,3.76-21.37,2.68-46.62,5.76-71.87,8.3-22.3,2.24-39.52,3.51-55.83,4.11-10,.41-19.37.41-27.37.41H840.11c-4.82,0-8.74.07-12.34.07-5.85.12-11.74.12-17.49.12a1017.87,1017.87,0,0,1-118-6.46c-21.63-2.5-44.48-5.69-67.93-9.5-18.3-3-36.43-6.59-53.87-10.75-17.65-4.21-34.27-8.44-50.33-12.81v54.49h-.07c3.73,1.2,7.53,2.39,11.42,3.61l3.69,1.16c4.14,1.31,8.18,2.63,12.09,3.91,9.1,3,17.7,5.8,25.58,7.72,21,5.13,42.39,9.77,63.68,13.77,15.7,3,32.93,5.61,54.24,8.33,30,3.82,60.3,6.32,90.14,7.32,16.17.57,32,.85,47.1.85,19.37,0,38.37-.47,56.37-1.39,18.24-.94,36.92-2.4,55.51-4.4,20.58-2.2,41.62-5.16,61.4-8,8.08-1.16,16.51-2.78,25.51-4.48l7.89-1.5a629.71,629.71,0,0,0,63.23-15.12l1.11-.33c10.69-3.17,20.78-6.16,30.27-9.5l4.13-1.47q-.15-27-.28-54C1121.55,1110.57,1109.07,1113.68,1095.37,1116.83Z"/><path d="M1265.7,929.17a148.74,148.74,0,0,0-34.27-20.88,4,4,0,0,1-2-2.66c-1.71-9.91-3-20-4.88-29.91a325.18,325.18,0,0,0-15.39-55.81c-5.75-15.12-12.23-30-19-44.65-8.41-18.22-19-35.27-30.47-51.71A408.11,408.11,0,0,0,979.58,579.67a396.94,396.94,0,0,0-53-17.47,405.66,405.66,0,0,0-99.13-12.39h0q-19.38,0-38.87,1.88a416.66,416.66,0,0,0-57.67,9.67,403.43,403.43,0,0,0-74.39,25.91,398.5,398.5,0,0,0-54.71,30.67A407.15,407.15,0,0,0,485.52,736.06a396.51,396.51,0,0,0-28.35,52,388.63,388.63,0,0,0-25.67,76.12c-1.95,8.81-3.63,17.69-5.24,26.58-.85,4.75-1.38,9.56-1.85,14.36a3.41,3.41,0,0,1-2.23,3.23,157.48,157.48,0,0,0-88.49,104.18,175.58,175.58,0,0,0-5.17,55.4c2.3,38.28,15.81,72.07,42,100.39a151.43,151.43,0,0,0,48.62,35.13,2.87,2.87,0,0,1,1.9,3.08c-.09,6.18.18,12.37-.09,18.53a44.5,44.5,0,0,0,3.68,20.37c5.44,12.36,10.57,24.85,16,37.22,6,13.67,12,27.32,18.33,40.85q7.74,16.71,16.2,33c8.44,16.27,16.75,32.63,25.89,48.5,13.11,22.79,26.57,45.41,40.57,67.64,10.35,16.48,21.57,32.45,33,48.23,16.93,23.36,35.37,45.48,56.76,65,11.82,10.75,24.32,20.67,39.1,27.08,6.09,2.64,12.71,4.14,19.09,6.14.93.29,1.85.45,2.85.67H961c4.76-1.2,9.61-2.11,14.26-3.64,11.43-3.76,21.51-10.06,31.07-17.23,19-14.25,35.15-31.46,50.35-49.58a673.61,673.61,0,0,0,53.49-73.78q21.07-33.51,40.71-67.84,16.14-28.2,30.48-57.27c10.75-21.79,20.68-44,30.68-66.13,6.52-14.55,12.59-29.29,18.59-44a25.94,25.94,0,0,0,1.83-8.84c.2-8.05.1-16.16,0-24.16a3.6,3.6,0,0,1,2.39-3.88,153.43,153.43,0,0,0,61-50.7A149,149,0,0,0,1319.3,1103c2.32-8.89,3.39-18.09,5-27.15q.48-2.61.94-5.25v-26.32c-.54-3.63-1.07-7.24-1.54-10.87C1318.21,991,1298.7,956.24,1265.7,929.17ZM919,1508.79c-2.62,0-5.25,0-7.87,0H813.88q-39.28,0-78.55.08l0-.05c-10.59,0-18.31-7.48-19.21-16.8A18.38,18.38,0,0,1,734.76,1472H918.37c10.41,0,18.56,7.7,18.93,17.7,0,.22,0,.44,0,.66A18.37,18.37,0,0,1,919,1508.79ZM1184.4,1255.2c-4.63,10.17-9.29,20.32-14.06,30.43a5,5,0,0,1-2.59,2.34c-20.64,7.53-41.34,14.55-62.64,19.83-15.63,3.88-31.17,8.2-46.93,11.43-19.92,4.08-39.94,7.55-60,10.7-16.84,2.62-33.84,4.76-50.84,6.62-33.39,3.66-66.9,5.55-100.49,6q-11.37.17-22.72.16c-30.66,0-61.29-.93-91.86-3.55-20.15-1.74-40.31-3.76-60.31-6.66-24.78-3.54-49.48-7.84-74.08-12.54-16.68-3.19-33.22-7.23-49.62-11.66-18-4.89-35.65-10.64-53.47-16q-.63-.25-1.26-.45c-7.65-1.33-11.6-6.12-14.29-13.26-3.72-9.88-8.57-19.27-12.91-28.88-.28-.65-.43-1.3-.86-2.65,2,.59,3.54,1,5,1.47,15.93,5.36,31.67,11.39,47.82,16,20.62,5.9,41.5,11,62.41,15.81,15.59,3.6,31.32,6.86,47.14,9.21q40.77,6.15,81.7,10.75c37.58,4.23,75.35,5.39,113.15,5.53h4.9v.09a1163.48,1163.48,0,0,0,126.16-6.45c17.35-1.89,34.68-4.09,51.91-6.81,20.56-3.29,41.14-6.85,61.56-11a789.51,789.51,0,0,0,81.44-21.52c12.24-3.86,24.17-8.36,36.24-12.57.76-.26,1.52-.47,3-.92C1186.58,1249.89,1185.59,1252.59,1184.4,1255.2Zm8.55-50.66c-14.4,5.39-28.7,11.09-43.2,16.19-11.3,4-22.81,7.37-34.3,10.77a683.2,683.2,0,0,1-69.4,16.61c-11.94,2.24-23.94,4.67-35.94,6.4-21.17,3-42.36,6-63.63,8.28q-29.4,3.17-58.88,4.66-29.75,1.48-59.51,1.48H828q-24.62,0-49.23-.89-48.09-1.68-95.79-7.78c-19.34-2.47-38.68-5.28-57.84-8.89q-33.64-6.33-66.87-14.46c-14-3.44-27.74-8.36-41.55-12.72-11.26-3.54-22.53-7-33.67-10.93-7.51-2.61-14.79-5.89-22.2-8.79-1.67-.66-2.2-1.64-2.2-3.44q0-87.82.05-175.67c0-.77.09-1.54.17-2.69,3,1,5.62,1.92,8.3,2.8,16.82,5.5,33.51,11.62,50.51,16.5,22.2,6.37,44.56,12.15,67,17.51,16.35,3.87,32.88,7.17,49.47,9.87,21.64,3.51,43.36,6.6,65.13,9.11a964,964,0,0,0,111,6.06q8.31,0,16.63-.12,6.6-.08,13.2-.08H859c8.38,0,16.75-.07,25.12-.38,17.34-.63,34.66-2.1,51.93-3.84,23.5-2.37,46.95-5.2,70.39-8.13,7.34-.92,14.55-2.83,21.82-4.28,17.81-3.55,35.71-6.68,53.4-10.74,23-5.29,45.9-11.22,68.29-18.8,14.14-4.79,28.16-9.93,42.24-14.93.49-.17,1-.26,1.86-.47.05,1.07.13,1.92.13,2.76q.32,68.22.69,136.44.11,19.53.39,39C1195.32,1202.84,1194.74,1203.87,1193,1204.54Z"/><path d="M1652,1662.7,1499,475.61c-4.91-37.19-22.11-71.21-48.43-95.87s-60-38.34-94.9-38.47H1187.85C1176.54,141.81,1005.67-10.72,806.21.59,622.54,11,475.94,157.61,465.53,341.27H297.69c-34.91.14-68.61,13.78-94.93,38.47s-43.51,58.71-48.44,95.91L1.38,1662.7c-5.75,44.63,6.69,89.74,34.19,123.7s67.28,53.47,109.12,53.45h1364c41.87,0,81.68-19.49,109.16-53.45S1657.76,1707.32,1652,1662.7ZM691.19,127c129.62-74.83,295.35-30.41,370.19,99.21a271.12,271.12,0,0,1,35.53,115H556.46A271,271,0,0,1,691.19,127Zm695.54,949.08-1,5.35-.93,5.25c-.4,2.24-.8,4.72-1.21,7.34-1.15,7.21-2.45,15.38-4.74,24.29a210.39,210.39,0,0,1-33,70.07,215.07,215.07,0,0,1-52.51,52,87.24,87.24,0,0,1-5.9,23.2l-1,2.4c-5.81,14.15-11.82,28.78-18.41,43.42l-.75,1.68c-9.78,21.73-19.86,44.21-30.86,66.43-10,20.3-20.86,40.68-32.24,60.58-13.65,23.87-27.8,47.45-42.06,70.09a736.61,736.61,0,0,1-58.39,80.5c-14.57,17.38-34.57,39.82-60.57,59.26-10.61,8-27.19,19.34-48.69,26.41-5.84,1.93-11,3.08-15.14,4.08-1.25.29-2.43.56-3.37.8l-7.36,1.84H685.38l-6.54-1.51c-1.36-.29-4.18-.88-7.61-1.95-1.22-.38-2.76-.83-4.4-1.3a159.88,159.88,0,0,1-20.77-7.1c-24.1-10.44-42.58-25.79-56-38-22.3-20.32-43.61-44.61-65.14-74.32-10-13.76-23-32.05-35.27-51.51-13-20.64-26.71-43.46-41.84-69.76-8.55-14.84-16.23-29.69-23.66-44.06l-3.52-6.81c-5.93-11.43-11.77-23.31-17.36-35.31-6.71-14.41-13-28.7-18.9-42.11-2.79-6.37-5.49-12.71-8.1-18.85-2.69-6.3-5.24-12.3-7.86-18.3a104.24,104.24,0,0,1-8.16-29.86,211.63,211.63,0,0,1-34.83-30.3,217.4,217.4,0,0,1-41.61-64.66,227.8,227.8,0,0,1-16.62-73.69A237.51,237.51,0,0,1,274.33,997a219.44,219.44,0,0,1,93.78-129.11c1-5.38,2.19-11.16,3.48-17a453.07,453.07,0,0,1,29.66-88.13A467.44,467.44,0,0,1,716.54,501.68a482.5,482.5,0,0,1,66.17-11.1c14.86-1.43,29.91-2.15,44.74-2.15l.09,0a469,469,0,0,1,114.1,14.24,459,459,0,0,1,61.21,20.17,468.72,468.72,0,0,1,207.26,165.56c15.4,22,26.8,41.48,35.88,61.15,8.56,18.56,15.12,34,20.65,48.7A388.26,388.26,0,0,1,1285,864.62c.2,1.08.39,2.15.58,3.21a206.58,206.58,0,0,1,19.13,13.88,217.86,217.86,0,0,1,80,143.76c.27,2,.58,4.23.92,6.55.18,1.2.35,2.4.52,3.61l.62,4.3Z"/></svg>