<svg id="Layer_1" data-name="Layer 1" xmlns="http://www.w3.org/2000/svg" xmlns:xlink="http://www.w3.org/1999/xlink" viewBox="0 0 2000 2000">
  <defs>
    <style>
      .cls-1 {
        fill-rule: evenodd;
      }

      .cls-2 {
        fill: url(#linear-gradient);
      }
    </style>
    <linearGradient id="linear-gradient" x1="1000" y1="122.84814" x2="1000" y2="1877.15186" gradientUnits="userSpaceOnUse">
      <stop offset="0" stop-color="#00a4dc"/>
      <stop offset="1" stop-color="#ff00f6"/>
    </linearGradient>
  </defs>
  <g>
    <path class="cls-1" d="M606.906,149.904l150.26866,359.74a55.68329,55.68329,0,0,0,50.0894,33.0894H1970.00982V1850.096H27.05589V151.60026ZM1972.94332,265.28871l-1.68326,167.92742H844.25332L775.5135,266.98454Z"/>
    <path class="cls-2" d="M1970.01,1877.15186H27.05589A27.05553,27.05553,0,0,1,0,1850.096V151.6003a27.05634,27.05634,0,0,1,26.97662-27.05589l579.84994-1.69627h.07926a27.05515,27.05515,0,0,1,24.9654,16.62721l150.13534,359.4195a28.71321,28.71321,0,0,0,25.478,16.78257H1970.01a27.05554,27.05554,0,0,1,27.05588,27.05589V1850.096A27.05519,27.05519,0,0,1,1970.01,1877.15186ZM54.11177,1823.04009h1888.8423V569.7892H807.26418q-.19578,0-.39157-.00264a82.98234,82.98234,0,0,1-74.428-49.16774q-.12048-.27188-.23515-.54693L588.90785,177.01275,54.11177,178.57692ZM1971.26024,460.272H844.25307A27.05529,27.05529,0,0,1,819.25068,443.555L750.51129,277.32351a27.05555,27.05555,0,0,1,24.96434-37.39472L1972.90578,238.233h.038a27.05556,27.05556,0,0,1,27.05483,27.327l-1.68359,167.92722A27.05683,27.05683,0,0,1,1971.26024,460.272ZM862.343,406.16027H1944.47385l1.14142-113.77688-1129.65938,1.6001Z"/>
  </g>
</svg>
