<svg id="Layer_1" data-name="Layer 1" xmlns="http://www.w3.org/2000/svg" xmlns:xlink="http://www.w3.org/1999/xlink" viewBox="0 0 2000 2000"><defs><style>.cls-1{fill:url(#linear-gradient);}.cls-2{fill:url(#linear-gradient-2);}</style><linearGradient id="linear-gradient" x1="1000" y1="18.67" x2="1000" y2="1981.33" gradientUnits="userSpaceOnUse"><stop offset="0" stop-color="#00a4dc"/><stop offset="1" stop-color="#ff00f6"/></linearGradient><linearGradient id="linear-gradient-2" x1="1000" y1="568.5" x2="1000" y2="1761.12" gradientUnits="userSpaceOnUse"><stop offset="0" stop-color="#4677e3"/><stop offset="1" stop-color="#e113f3"/></linearGradient></defs><path d="M1825.3,1742.77l-153-1187.09c-4.91-37.19-22.11-71.21-48.43-95.87s-60-38.34-94.9-38.47H1361.16a361.74,361.74,0,0,0-722.32,0H471c-34.91.14-68.61,13.78-94.93,38.47s-43.51,58.71-48.44,95.91L174.69,1742.77c-5.75,44.63,6.69,89.74,34.19,123.7l0,0c27.48,34,67.28,53.47,109.12,53.45H1682c41.87,0,81.68-19.49,109.16-53.45S1831.07,1787.39,1825.3,1742.77ZM864.5,207.1a271,271,0,0,1,405.72,214.24H729.77A271,271,0,0,1,864.5,207.1Z"/><path class="cls-1" d="M1000,80.05a361.77,361.77,0,0,1,361.16,341.29H1529c34.91.13,68.6,13.8,94.9,38.47s43.52,58.68,48.43,95.87l153,1187.09c5.77,44.62-6.7,89.75-34.19,123.73S1723.87,1920,1682,1920H317.94c-41.81,0-81.58-19.5-109-53.45l0,0c-27.5-34-39.94-79.07-34.19-123.7l152.94-1187c4.93-37.2,22.12-71.25,48.44-95.91s60-38.33,94.93-38.47H638.84A361.74,361.74,0,0,1,1000,80.05M729.77,421.34h540.45a271,271,0,0,0-540.45,0M1000,18.67A423,423,0,0,0,584.89,360H470.76c-50.49.19-99,19.75-136.69,55.08-36.61,34.3-60.51,81.41-67.29,132.63l0,.1v.11L113.81,1734.93c-7.8,60.45,8.93,121.68,45.92,168.38l.1.13,1.34,1.67c39.18,48.44,96.32,76.22,156.77,76.22H1682c60.46,0,117.61-27.78,156.8-76.21,38-47,55.27-109,47.35-170.22l-153-1187.06v-.19c-6.76-51.19-30.67-98.29-67.32-132.64-37.66-35.32-86.2-54.88-136.65-55.05H1415.11A423.06,423.06,0,0,0,1000,18.67ZM807,360a209.64,209.64,0,0,1,386,0Z"/><path d="M1498.57,1124.34v26.32q-.46,2.63-.94,5.25c-1.61,9.06-2.68,18.26-5,27.15a148.91,148.91,0,0,1-23.47,49.67,153.48,153.48,0,0,1-61,50.7,3.6,3.6,0,0,0-2.39,3.88c.1,8,.2,16.11,0,24.16a25.75,25.75,0,0,1-1.83,8.84c-6,14.71-12.07,29.45-18.59,44-10,22.16-19.93,44.34-30.68,66.13q-14.34,29.07-30.48,57.27-19.63,34.33-40.71,67.84a672.52,672.52,0,0,1-53.49,73.78c-15.2,18.12-31.33,35.33-50.35,49.58-9.56,7.17-19.64,13.47-31.07,17.23-4.65,1.53-9.5,2.44-14.26,3.64H865.73c-1-.22-1.92-.38-2.85-.67-6.38-2-13-3.5-19.09-6.14-14.78-6.41-27.28-16.33-39.1-27.08-21.39-19.47-39.83-41.59-56.76-64.95-11.43-15.78-22.65-31.75-33-48.23-14-22.23-27.46-44.85-40.57-67.64-9.14-15.87-17.45-32.23-25.89-48.5q-8.46-16.3-16.2-33c-6.31-13.53-12.34-27.18-18.33-40.85-5.43-12.37-10.56-24.86-16-37.22a44.66,44.66,0,0,1-3.68-20.37c.27-6.16,0-12.35.09-18.53a2.86,2.86,0,0,0-1.9-3.08,151.63,151.63,0,0,1-48.62-35.13c-26.19-28.32-39.7-62.11-42-100.39A175.89,175.89,0,0,1,507,1092.6a157.5,157.5,0,0,1,88.49-104.18,3.41,3.41,0,0,0,2.23-3.23c.47-4.8,1-9.61,1.85-14.36,1.61-8.89,3.29-17.77,5.24-26.58a389.29,389.29,0,0,1,25.67-76.12,396.51,396.51,0,0,1,28.35-52A407.14,407.14,0,0,1,775.12,698a398.63,398.63,0,0,1,54.71-30.67,403.17,403.17,0,0,1,74.39-25.91,416.66,416.66,0,0,1,57.67-9.67,403.62,403.62,0,0,1,138,10.51,394.77,394.77,0,0,1,53,17.47A408,408,0,0,1,1333,803.62c11.49,16.44,22.06,33.49,30.47,51.71,6.77,14.68,13.25,29.53,19,44.65a325.09,325.09,0,0,1,15.39,55.81c1.83,9.93,3.17,20,4.88,29.91a4.08,4.08,0,0,0,2,2.66,148.17,148.17,0,0,1,34.27,20.88c33,27.07,52.51,61.79,58,104.23C1497.5,1117.1,1498.06,1120.71,1498.57,1124.34Zm-866.3-21.59c-.08,1.15-.17,1.92-.17,2.69q0,87.84-.05,175.67c0,1.8.53,2.78,2.2,3.44,7.41,2.9,14.69,6.18,22.2,8.79,11.14,3.89,22.41,7.39,33.67,10.93,13.81,4.36,27.5,9.28,41.55,12.72q33.23,8.12,66.87,14.46c19.16,3.61,38.5,6.42,57.84,8.89q47.7,6.09,95.79,7.78c36.26,1.26,72.52,1.27,108.74-.59q29.49-1.5,58.88-4.66c21.27-2.27,42.46-5.24,63.63-8.28,12-1.73,24-4.16,35.94-6.4a685.24,685.24,0,0,0,69.4-16.61c11.49-3.4,23-6.8,34.3-10.77,14.5-5.1,28.8-10.8,43.2-16.19,1.79-.67,2.37-1.7,2.34-3.6q-.28-19.47-.39-39-.37-68.22-.69-136.44c0-.84-.08-1.69-.13-2.76-.86.21-1.37.3-1.86.47-14.08,5-28.1,10.14-42.24,14.93-22.39,7.58-45.27,13.51-68.28,18.8-17.7,4.06-35.6,7.19-53.41,10.74-7.27,1.45-14.48,3.36-21.82,4.28-23.44,2.93-46.89,5.76-70.39,8.13-17.27,1.74-34.59,3.21-51.93,3.84-19,.7-38.13.15-57.2.42a988.91,988.91,0,0,1-127.61-5.94c-21.77-2.51-43.49-5.6-65.13-9.11-16.59-2.7-33.12-6-49.47-9.87-22.44-5.36-44.8-11.14-67-17.51-17-4.88-33.69-11-50.51-16.5C637.89,1104.67,635.23,1103.75,632.27,1102.75Zm6.57,224.38c.43,1.35.58,2,.86,2.65,4.34,9.61,9.19,19,12.91,28.88,2.69,7.14,6.64,11.93,14.29,13.26a11.84,11.84,0,0,1,1.26.45c17.82,5.36,35.52,11.11,53.47,16,16.4,4.43,32.94,8.47,49.62,11.66,24.6,4.7,49.3,9,74.08,12.54,20,2.9,40.16,4.92,60.31,6.66,38.12,3.27,76.33,3.9,114.58,3.39,33.59-.45,67.1-2.34,100.49-6,17-1.86,34-4,50.84-6.62,20.06-3.15,40.08-6.62,60-10.7,15.76-3.23,31.3-7.55,46.93-11.43,21.3-5.28,42-12.3,62.64-19.83a5,5,0,0,0,2.59-2.34c4.77-10.11,9.43-20.26,14.06-30.43,1.19-2.61,2.18-5.31,3.5-8.55-1.48.45-2.24.66-3,.92-12.07,4.21-24,8.71-36.24,12.57a790.18,790.18,0,0,1-81.44,21.52c-20.42,4.15-41,7.71-61.56,11-17.23,2.72-34.56,4.92-51.91,6.81A1173.63,1173.63,0,0,1,996,1385.92c-37.8-.14-75.57-1.3-113.15-5.53q-40.93-4.61-81.7-10.75c-15.82-2.35-31.55-5.61-47.14-9.21-20.91-4.84-41.79-9.91-62.41-15.81-16.15-4.61-31.89-10.64-47.82-16C642.34,1328.11,640.84,1327.72,638.84,1327.13ZM1000.19,1552h-37.6c-18.17,0-36.34,0-54.52,0a18.41,18.41,0,0,0-18.59,20.11c.91,9.33,8.64,16.82,19.26,16.8q81.78-.2,163.56-.06c6.71,0,13.43.08,20.14,0a18.38,18.38,0,0,0,18.27-19.13c-.37-10-8.52-17.7-18.93-17.7Q1046,1552,1000.19,1552Z"/><path class="cls-2" d="M1000.76,629.88a405,405,0,0,1,99.13,12.39,394.77,394.77,0,0,1,53,17.47A408,408,0,0,1,1333,803.62c11.49,16.44,22.06,33.49,30.47,51.71,6.77,14.68,13.25,29.53,19,44.65a324.18,324.18,0,0,1,15.39,55.81c1.83,9.93,3.17,20,4.88,29.91a4.08,4.08,0,0,0,2,2.66,148.17,148.17,0,0,1,34.27,20.88c33,27.07,52.51,61.79,58,104.23.47,3.63,1,7.24,1.54,10.87v26.32q-.46,2.63-.94,5.25c-1.61,9.06-2.68,18.26-5,27.15a148.91,148.91,0,0,1-23.47,49.67,153.48,153.48,0,0,1-61,50.7,3.6,3.6,0,0,0-2.39,3.88c.1,8,.2,16.11,0,24.16a25.75,25.75,0,0,1-1.83,8.84c-6,14.71-12.07,29.45-18.59,44-10,22.16-19.93,44.34-30.68,66.13q-14.34,29.07-30.48,57.27-19.63,34.33-40.71,67.84a672.52,672.52,0,0,1-53.49,73.78c-15.2,18.12-31.33,35.33-50.35,49.58-9.56,7.17-19.64,13.47-31.07,17.23-4.65,1.53-9.5,2.44-14.26,3.64H865.73c-1-.22-1.92-.38-2.85-.67-6.38-2-13-3.5-19.09-6.14-14.78-6.41-27.28-16.33-39.1-27.08-21.39-19.47-39.83-41.59-56.76-64.95-11.43-15.78-22.65-31.75-33-48.23-14-22.23-27.46-44.85-40.57-67.64-9.14-15.87-17.45-32.23-25.89-48.5q-8.46-16.3-16.2-33c-6.31-13.53-12.34-27.18-18.33-40.85-5.43-12.37-10.56-24.86-16-37.22a44.68,44.68,0,0,1-3.68-20.37c.27-6.16,0-12.35.09-18.53a2.86,2.86,0,0,0-1.9-3.08,151.63,151.63,0,0,1-48.62-35.13c-26.19-28.32-39.7-62.11-42-100.39A175.89,175.89,0,0,1,507,1092.6a157.5,157.5,0,0,1,88.49-104.18,3.41,3.41,0,0,0,2.23-3.23c.47-4.8,1-9.61,1.85-14.36,1.61-8.89,3.29-17.77,5.24-26.58a389.29,389.29,0,0,1,25.67-76.12,396.51,396.51,0,0,1,28.35-52A407.14,407.14,0,0,1,775.12,698a398.63,398.63,0,0,1,54.71-30.67,403.17,403.17,0,0,1,74.39-25.91,416.66,416.66,0,0,1,57.67-9.67q19.5-1.87,38.87-1.88m.64,719.13q29.77,0,59.51-1.48,29.49-1.5,58.88-4.66c21.27-2.27,42.46-5.24,63.63-8.28,12-1.73,24-4.16,35.94-6.4a685.24,685.24,0,0,0,69.4-16.61c11.49-3.4,23-6.8,34.3-10.77,14.5-5.1,28.8-10.8,43.2-16.19,1.79-.67,2.37-1.7,2.34-3.6q-.28-19.47-.39-39-.37-68.22-.69-136.44c0-.84-.08-1.69-.13-2.76-.86.21-1.37.3-1.86.47-14.08,5-28.1,10.14-42.24,14.93-22.39,7.58-45.27,13.51-68.29,18.8-17.69,4.06-35.59,7.19-53.4,10.74-7.27,1.45-14.48,3.36-21.82,4.28-23.44,2.93-46.89,5.76-70.39,8.13-17.27,1.74-34.59,3.21-51.93,3.84-8.37.31-16.74.38-25.12.38-6.29,0-12.58,0-18.88,0q-6.6,0-13.2.08-8.31.12-16.63.12a966.25,966.25,0,0,1-111-6.06c-21.77-2.51-43.49-5.6-65.13-9.11-16.59-2.7-33.12-6-49.47-9.87-22.44-5.36-44.8-11.14-67-17.51-17-4.88-33.69-11-50.51-16.5-2.68-.88-5.34-1.8-8.3-2.8-.08,1.15-.17,1.92-.17,2.69q0,87.84-.05,175.67c0,1.8.53,2.78,2.2,3.44,7.41,2.9,14.69,6.18,22.2,8.79,11.14,3.89,22.41,7.39,33.67,10.93,13.81,4.36,27.5,9.28,41.55,12.72q33.23,8.12,66.87,14.46c19.16,3.61,38.5,6.42,57.84,8.89q47.7,6.09,95.79,7.78,24.62.86,49.23.89m-.45,36.91H996c-37.8-.14-75.57-1.3-113.15-5.53q-40.93-4.61-81.7-10.75c-15.82-2.35-31.55-5.61-47.14-9.21-20.91-4.84-41.79-9.91-62.41-15.81-16.15-4.61-31.89-10.64-47.82-16-1.46-.49-3-.88-5-1.47.43,1.35.58,2,.86,2.65,4.34,9.61,9.19,19,12.91,28.88,2.69,7.14,6.64,11.93,14.29,13.26a11.84,11.84,0,0,1,1.26.45c17.82,5.36,35.52,11.11,53.47,16,16.4,4.43,32.94,8.47,49.62,11.66,24.6,4.7,49.3,9,74.08,12.54,20,2.9,40.16,4.92,60.31,6.66,30.57,2.62,61.2,3.55,91.86,3.55q11.36,0,22.72-.16c33.59-.45,67.1-2.34,100.49-6,17-1.86,34-4,50.84-6.62,20.06-3.15,40.08-6.62,60-10.7,15.76-3.23,31.3-7.55,46.93-11.43,21.3-5.28,42-12.3,62.64-19.83a5,5,0,0,0,2.59-2.34c4.77-10.11,9.43-20.26,14.06-30.43,1.19-2.61,2.18-5.31,3.5-8.55-1.48.45-2.24.66-3,.92-12.07,4.21-24,8.71-36.24,12.57a790.18,790.18,0,0,1-81.44,21.52c-20.42,4.15-41,7.71-61.56,11-17.23,2.72-34.56,4.92-51.91,6.81a1165.76,1165.76,0,0,1-126.16,6.45m-92.26,203h0q39.27-.09,78.55-.08l84.67,0h.34l12.27,0c2.62,0,5.25,0,7.87-.05a18.38,18.38,0,0,0,18.27-19.13c-.37-10-8.52-17.69-18.93-17.7q-19.9,0-39.81,0H962.42l-32.07,0q-11.15,0-22.28,0a18.41,18.41,0,0,0-18.59,20.11c.9,9.32,8.62,16.8,19.21,16.8M1000.76,568.5v0c-14.83,0-29.88.72-44.74,2.15a480.24,480.24,0,0,0-66.17,11.1A467.44,467.44,0,0,0,574.56,842.87,453.3,453.3,0,0,0,544.9,931c-1.29,5.84-2.46,11.62-3.48,17a219.44,219.44,0,0,0-93.78,129.11,237.41,237.41,0,0,0-7.14,74.66,228.12,228.12,0,0,0,16.62,73.69,217.7,217.7,0,0,0,41.61,64.66,212.5,212.5,0,0,0,34.83,30.3,104.83,104.83,0,0,0,8.16,29.86c2.62,6,5.17,12,7.86,18.3,2.61,6.14,5.31,12.48,8.1,18.85,5.88,13.41,12.19,27.7,18.9,42.11,5.59,12,11.43,23.88,17.36,35.31l3.52,6.81c7.43,14.37,15.11,29.22,23.66,44.06,15.13,26.3,28.82,49.12,41.84,69.76,12.28,19.46,25.3,37.75,35.27,51.51,21.53,29.71,42.84,54,65.14,74.32,13.42,12.21,31.9,27.56,56,38a161.32,161.32,0,0,0,20.77,7.1c1.64.47,3.18.92,4.4,1.3,3.43,1.07,6.25,1.66,7.61,1.95l6.54,1.51h283.22l7.36-1.84c.94-.24,2.12-.51,3.37-.8,4.14-1,9.3-2.15,15.14-4.08,21.5-7.07,38.08-18.46,48.69-26.41,26-19.44,46-41.88,60.57-59.26a737.59,737.59,0,0,0,58.39-80.5c14.26-22.64,28.41-46.22,42.06-70.09,11.38-19.9,22.23-40.28,32.24-60.58,11-22.22,21.08-44.7,30.86-66.43l.75-1.68c6.59-14.64,12.6-29.27,18.41-43.42l1-2.4a87,87,0,0,0,5.9-23.2,215.12,215.12,0,0,0,52.51-52,210.36,210.36,0,0,0,33-70.07c2.29-8.91,3.59-17.08,4.74-24.29.41-2.62.81-5.1,1.21-7.34l.93-5.25,1-5.35V1120l-.62-4.3c-.17-1.21-.34-2.41-.52-3.61-.34-2.32-.65-4.51-.92-6.55a217.84,217.84,0,0,0-80-143.76,203,203,0,0,0-19.13-13.88c-.19-1.06-.38-2.13-.58-3.21a387,387,0,0,0-18.32-66.35c-5.53-14.67-12.09-30.14-20.65-48.7-9.08-19.67-20.48-39.11-35.88-61.15a468.61,468.61,0,0,0-207.26-165.56,458,458,0,0,0-61.21-20.17,468.36,468.36,0,0,0-114.1-14.24ZM693.46,1241c0-18.2,0-36.41,0-54.49,16.06,4.37,32.68,8.6,50.33,12.81,17.44,4.16,35.57,7.78,53.87,10.75,23.45,3.81,46.3,7,67.93,9.5a1019.16,1019.16,0,0,0,118,6.46c5.75,0,11.64,0,17.49-.12,3.6,0,7.52-.07,12.34-.07l9.26,0h9.62c8,0,17.42,0,27.37-.41,16.31-.6,33.53-1.87,55.83-4.11,25.25-2.54,50.5-5.62,71.87-8.3,7.81-1,14.82-2.52,20.46-3.76,2.06-.46,4-.89,5.72-1.23,5.3-1,10.56-2.06,16.13-3.13,12.65-2.42,25.73-4.93,39-8,13.7-3.15,26.18-6.26,37.79-9.43q.14,27,.28,54l-4.13,1.47c-9.49,3.34-19.58,6.33-30.27,9.5l-1.11.33a632,632,0,0,1-63.23,15.12l-7.89,1.5c-9,1.7-17.43,3.32-25.51,4.48-19.78,2.84-40.82,5.8-61.4,8-18.59,2-37.27,3.46-55.51,4.4-18,.92-37,1.39-56.37,1.39-15.09,0-30.93-.28-47.1-.85-29.84-1-60.17-3.5-90.14-7.32-21.31-2.72-38.54-5.37-54.24-8.33-21.29-4-42.72-8.64-63.68-13.77-7.88-1.92-16.48-4.74-25.58-7.72-3.91-1.28-7.95-2.6-12.09-3.91l-3.69-1.16c-3.89-1.22-7.69-2.41-11.42-3.61Z"/></svg>